<svg xmlns="http://www.w3.org/2000/svg" width="25.64" height="31.523" viewBox="0 0 25.64 31.523">
  <g id="Gruppe_5" data-name="Gruppe 5" transform="translate(-383 -5585)">
    <g id="PDF_file_icon" transform="translate(383 5585)">
      <path id="Pfad_2" data-name="Pfad 2" d="M-50.292,183.975a3.261,3.261,0,0,0-3.256,3.257v25.01a3.261,3.261,0,0,0,3.256,3.257h19.124a3.261,3.261,0,0,0,3.256-3.257V191.676a2.7,2.7,0,0,0-.21-1.188,3.293,3.293,0,0,0-.644-.932l0,0-4.745-4.654-.008-.008a3.753,3.753,0,0,0-1.006-.643,3.675,3.675,0,0,0-1.436-.271H-50.292Z" transform="translate(53.548 -183.975)" fill="#ff2116"/>
      <path id="Pfad_3" data-name="Pfad 3" d="M-48.219,187.117h14.35a3.056,3.056,0,0,1,.993.186,2.722,2.722,0,0,1,.692.437l0,0,4.733,4.643a2.612,2.612,0,0,1,.423.611,2.319,2.319,0,0,1,.118.708q0,.011,0,.023v20.588A2.17,2.17,0,0,1-29.1,216.5H-48.219a2.17,2.17,0,0,1-2.186-2.187V189.3a2.17,2.17,0,0,1,2.186-2.187Z" transform="translate(51.475 -186.048)" fill="#f5f5f5"/>
      <path id="Pfad_4" data-name="Pfad 4" d="M-35.262,214.51c-.736-.736.06-1.747,2.221-2.821l1.36-.676.53-1.159c.291-.637.726-1.678.966-2.312l.437-1.152-.3-.853a6.094,6.094,0,0,1-.267-3.191c.318-.768,1.359-.689,1.772.134a5.2,5.2,0,0,1-.093,3.274l-.313,1.2.276.468a16.24,16.24,0,0,0,.984,1.358l.732.911.911-.119c2.895-.378,3.886.264,3.886,1.185,0,1.162-2.273,1.258-4.182-.083a5.8,5.8,0,0,1-.724-.6s-1.2.243-1.784.4c-.608.164-.911.266-1.8.567,0,0-.312.454-.516.783a8.436,8.436,0,0,1-2.273,2.613A1.549,1.549,0,0,1-35.262,214.51Zm1.155-.413a8.709,8.709,0,0,0,1.831-2.165l.235-.372-1.069.537c-1.65.83-2.406,1.612-2.013,2.085C-34.9,214.447-34.639,214.425-34.107,214.1Zm10.721-3.009A.621.621,0,0,0-23.5,210a3,3,0,0,0-1.568-.2c-.568.039-1.482.153-1.637.188,0,0,.5.347.725.475a9.635,9.635,0,0,0,1.544.645C-23.914,211.267-23.614,211.25-23.386,211.088ZM-27.7,209.3a10.577,10.577,0,0,1-.925-1.194,6.651,6.651,0,0,1-.519-.772s-.252.812-.46,1.3l-.646,1.6-.187.362s1-.327,1.5-.459c.537-.14,1.626-.354,1.626-.354Zm-1.389-5.571a2.34,2.34,0,0,0-.079-1.312c-.467-.511-1.031-.085-.936,1.129a8.282,8.282,0,0,0,.269,1.537l.247.782.174-.589A15.465,15.465,0,0,0-29.086,203.725Z" transform="translate(41.663 -195.741)" fill="#ff2116"/>
      <path id="Pfad_5" data-name="Pfad 5" d="M-31.067,249.123h1.195a3.248,3.248,0,0,1,.93.11,1.092,1.092,0,0,1,.6.477,1.569,1.569,0,0,1,.244.887,1.613,1.613,0,0,1-.2.82,1.162,1.162,0,0,1-.534.495,2.6,2.6,0,0,1-1.025.152h-.414v1.884h-.8Zm.8.619v1.683h.4a1.042,1.042,0,0,0,.732-.2.864.864,0,0,0,.205-.643.966.966,0,0,0-.134-.537.551.551,0,0,0-.3-.255,1.858,1.858,0,0,0-.506-.05Zm2.782-.619H-26.4a2.454,2.454,0,0,1,1.259.279,1.737,1.737,0,0,1,.714.831,2.991,2.991,0,0,1,.244,1.223,3.415,3.415,0,0,1-.219,1.262,2.007,2.007,0,0,1-.665.891,2.066,2.066,0,0,1-1.273.339h-1.145Zm.8.64v3.546h.332a1.119,1.119,0,0,0,1.011-.481,2.34,2.34,0,0,0,.315-1.29q0-1.775-1.326-1.775Zm3.27-.64h2.68v.64h-1.881v1.442h1.506v.64h-1.506v2.1h-.8Z" transform="translate(38.72 -226.946)" fill="#2c2c2c"/>
    </g>
  </g>
</svg>
