<svg xmlns="http://www.w3.org/2000/svg" width="492.757" height="97.459" viewBox="0 0 492.757 97.459">
  <g id="Gruppe_7" data-name="Gruppe 7" transform="translate(-817.093 -1049.478)">
    <g id="Gruppe_6" data-name="Gruppe 6" transform="translate(816.535 1034.642)">
      <g id="Gruppe" transform="translate(0 0)">
        <path id="Pfad_17" data-name="Pfad 17" d="M3.117-2.023a2.257,2.257,0,0,1-.383-.52,3.069,3.069,0,0,1-.273-.793,7.187,7.187,0,0,1-1.2-2.133,11.53,11.53,0,0,1-.6-2.488,12.355,12.355,0,0,1-.055-2.6,16.567,16.567,0,0,1,.383-2.461,10.585,10.585,0,0,0,.273-1.148q.273-1.039.547-2.051a4.333,4.333,0,0,1,.82-1.668A1.828,1.828,0,0,1,2.68-19.2q.273-.711.547-1.312a1.676,1.676,0,0,0,.164-.3q.055-.137.109-.246.656-1.914,1.285-3.691t1.23-3.418q1.094-3.008,2.105-5.906t1.832-6.18a2.845,2.845,0,0,1,.766-.437,2.122,2.122,0,0,1,.273-.109,1.212,1.212,0,0,1,.383-.055,18.409,18.409,0,0,0,2.707,1.121,8.648,8.648,0,0,0,2.652.52l.93.82a11.039,11.039,0,0,1,1.23,1.723,3.511,3.511,0,0,1,.3,2.324,1.806,1.806,0,0,1-.547.6,18.743,18.743,0,0,1-.711,2.215q-.383.957-.766,1.832-.437.984-.82,1.969A14.038,14.038,0,0,0,15.7-25.32a1.965,1.965,0,0,0-.41.656q-.082.273-.191.547a6.671,6.671,0,0,1-.273.684,1.8,1.8,0,0,1-.492.629,11.183,11.183,0,0,1-.656,2.762q-.438,1.066-.875,2.105-.766,1.914-1.422,3.8a15.146,15.146,0,0,0-.766,4.293,4.993,4.993,0,0,1,1.2-.164,4.3,4.3,0,0,1,1.367.219,12.03,12.03,0,0,1,4.293-1.2q2.324-.219,4.621-.273,1.914,0,3.555-.164a2.628,2.628,0,0,0,.711.41,3.772,3.772,0,0,0,.547.027h.328a2.353,2.353,0,0,1,.438.055,4.818,4.818,0,0,0,1.477,1.066q.711.3,1.531.574.711.273,1.395.574a6.8,6.8,0,0,1,1.34.793l.492,2.789q.438.6.383.82a1.348,1.348,0,0,1-.219.766l.109.711a3.912,3.912,0,0,0-1.367.465,6.784,6.784,0,0,0-.711.629q-.6.055-1.148.055a8.141,8.141,0,0,0-2.242.328,10.414,10.414,0,0,0-3.609-.6q-.766,0-1.559.055t-1.559.164q-.82.109-1.641.191T18.7-1.477q-.656.109-.93.164a3.118,3.118,0,0,0-.547.164q-1.859.6-4.02,1.2a16.137,16.137,0,0,1-4.348.6,7.85,7.85,0,0,1-5.2-1.641,5.21,5.21,0,0,0-.328-.656A3.575,3.575,0,0,1,3.117-2.023Zm66.2-28.766a2.213,2.213,0,0,1,.027.574q-.027.191-.055.355a2.166,2.166,0,0,0-.027.355,2.319,2.319,0,0,0,.109.574,6.27,6.27,0,0,1-2.652,2.543,13.253,13.253,0,0,1-3.254.984q-1.75.3-3.582.629a10.624,10.624,0,0,0-3.637,1.422,1.575,1.575,0,0,0-1.285,0,3.242,3.242,0,0,1-1.668.164,1.826,1.826,0,0,1-.82.465q-.492.137-.984.3a2.178,2.178,0,0,1,.191,1.012,1.693,1.693,0,0,0,.137.848,23.787,23.787,0,0,0,4.238-.055q2.324-.219,4.566-.273.055.273-.055.355t-.055.3a5.168,5.168,0,0,1,.766.684q.383.41.766.793a4.138,4.138,0,0,0,.793.629,1.518,1.518,0,0,0,.957.191,3.264,3.264,0,0,1,.3.957,2,2,0,0,1-.137,1.066q-.875.6-1.75,1.23a14.487,14.487,0,0,1-1.832,1.121,10.854,10.854,0,0,1-2.023.793,7.581,7.581,0,0,1-2.379.246h-.41a.662.662,0,0,1-.355-.164,1.835,1.835,0,0,1-1.23.164,1.835,1.835,0,0,0-1.23.164,3.228,3.228,0,0,0-1.449-.246,4.305,4.305,0,0,1-1.5-.191A18.925,18.925,0,0,0,48.2-10.336a21.592,21.592,0,0,0-1.258,2.789,16.808,16.808,0,0,0,3.09.219q1.23-.055,2.324-.191T54.6-7.793a19.99,19.99,0,0,1,2.9-.082,7.249,7.249,0,0,1,2.6-.793A13.639,13.639,0,0,0,62.86-9.3a1.776,1.776,0,0,1,.766.574q.328.41.629.766a5.122,5.122,0,0,0,.629.629,1.046,1.046,0,0,0,.82.219,1.15,1.15,0,0,1,.3.52q.082.3.137.574a1.191,1.191,0,0,0,.191.465.436.436,0,0,0,.465.137,8.238,8.238,0,0,1-1.887,2.762A7.319,7.319,0,0,1,62.477-1.2a17.16,17.16,0,0,1-3.035.766q-1.668.273-3.691.656a1.36,1.36,0,0,1-.82-.027,1.98,1.98,0,0,0-.766-.137q-1.258.273-3.008.492A23,23,0,0,1,47.6.711,16.191,16.191,0,0,1,44.157.246,5.626,5.626,0,0,1,41.477-1.2a1.788,1.788,0,0,1-.574-.9,1.215,1.215,0,0,0-.738-.793,14.878,14.878,0,0,0-.219-1.586q-.164-.875-.328-1.832T39.372-8.2a5.7,5.7,0,0,1,.082-1.7,3.43,3.43,0,0,1,.684-1.477,1.643,1.643,0,0,0,.355-1.422.379.379,0,0,0,.328-.3q.055-.246.438-.191.328-.984.711-1.859t.793-1.7q.41-.82.82-1.668t.793-1.887a4.511,4.511,0,0,1-1.121-1.559,8.611,8.611,0,0,1-.52-1.7q-.164-.848-.273-1.75a11.316,11.316,0,0,0-.383-1.832,4.69,4.69,0,0,1,1.34-1.34,7.969,7.969,0,0,1,1.723-.848,14.808,14.808,0,0,1,2.023-.547q1.094-.219,2.3-.492,2.187-.711,3.91-1.094t3.391-.629q1.668-.246,3.473-.465t4.1-.656a1.381,1.381,0,0,0,.93.492q.219-.492.52-.3t.246-.3a5.2,5.2,0,0,0,1.395,1.559A9.034,9.034,0,0,0,69.313-30.789ZM101.384-8.914a.681.681,0,0,1,.383.547,1.638,1.638,0,0,1,0,.6q-.984,1.258-1.367,1.75t-.547.738a1.986,1.986,0,0,1-.355.41q-.191.164-.848.711a45.891,45.891,0,0,1-5.059,2.625A21.47,21.47,0,0,1,88.15.055,2.622,2.622,0,0,1,86.482.9q-1.23.246-2.27.465a.4.4,0,0,1-.246-.3.4.4,0,0,0-.246-.3q-.055.547-.492.574a2.58,2.58,0,0,1-1.066-.219A8.8,8.8,0,0,1,80.849.465q-.684-.41-1.176-.738Q79.4.164,79.1.6a1.556,1.556,0,0,1-.738.6l-.9-.164a.633.633,0,0,0-.574.219,1.674,1.674,0,0,1-.52-.383q-.191-.219-.383-.41a2.858,2.858,0,0,0-.437-.355,2.214,2.214,0,0,0-.684-.273.841.841,0,0,0-.109-.684.974.974,0,0,0-.656-.574q.219-.383-.191-.957a4.44,4.44,0,0,1-.629-1.285,12.887,12.887,0,0,0,.164-1.312A.786.786,0,0,1,74.1-5.8a2.872,2.872,0,0,0-.164-.656L73.712-7a1.832,1.832,0,0,0,.547-.793,8.249,8.249,0,0,0,.273-.957,9.91,9.91,0,0,1,.273-.984,1.669,1.669,0,0,1,.6-.82q.492-1.641.766-2.434a10.381,10.381,0,0,0,.41-1.559q.137-.766.328-1.641a16.585,16.585,0,0,1,.684-2.187,3.653,3.653,0,0,1,.164-1.449q.219-.629.465-1.258a10,10,0,0,0,.41-1.312,3.506,3.506,0,0,0-.055-1.613,1.373,1.373,0,0,0-1.094.52,2.8,2.8,0,0,0-.437,1.23,1.362,1.362,0,0,1-1.066.41,3.106,3.106,0,0,0-1.121.137A8.242,8.242,0,0,1,71.689-23.9a11.338,11.338,0,0,1-2.023-3.336,5.258,5.258,0,0,1,1.477-2.105,9.385,9.385,0,0,1,2.242-1.422,15.474,15.474,0,0,1,2.68-.93l2.734-.684q2.133-.383,4.266-.875a15.713,15.713,0,0,1,4.594-.328,2.03,2.03,0,0,1,.793-.191q.465-.027.957-.027t.957-.027a2.03,2.03,0,0,0,.793-.191,1.239,1.239,0,0,0,.793.41,2.665,2.665,0,0,1,1.121.52q.656-.492,1.121-.219a5.877,5.877,0,0,1,.848.6q.383.328.738.6a1.2,1.2,0,0,0,.738.273,5.172,5.172,0,0,0,.957.93q.574.437,1.094.9a5.054,5.054,0,0,1,.875,1.012,2.256,2.256,0,0,1,.355,1.258q-.055.273.164.328a.531.531,0,0,1,.328.219,6.369,6.369,0,0,1-.52,2.926,10.8,10.8,0,0,1-1.422,2.27,18.887,18.887,0,0,1-1.859,1.969,16.874,16.874,0,0,0-1.832,1.969,6.848,6.848,0,0,0,1.258,1.258q.711.547,1.449,1.094a17.3,17.3,0,0,1,1.395,1.148,5.283,5.283,0,0,1,1.094,1.422,1.041,1.041,0,0,0,.273.191,3.057,3.057,0,0,1,.328.191,7.881,7.881,0,0,0,.438,1.121q.273.574.465,1.094a4.429,4.429,0,0,1,.246.93A.771.771,0,0,1,101.384-8.914ZM91.759-27.18a21.94,21.94,0,0,0-5.551.492,15.7,15.7,0,0,0-4.621,1.7,18.244,18.244,0,0,0,1.887,1.367,4.216,4.216,0,0,1,1.5,1.641A14.8,14.8,0,0,0,88.751-24.2,22.126,22.126,0,0,0,91.759-27.18ZM92.47-9.734a1.658,1.658,0,0,1,.6-.875q.437-.328.875-.629a4.523,4.523,0,0,0,.766-.656,1.273,1.273,0,0,0,.273-1.012,9.638,9.638,0,0,0-3.2-1.121,9.8,9.8,0,0,0-2.734,0,15.138,15.138,0,0,0-2.461.574,13.611,13.611,0,0,1-2.379.547q-.6,1.586-1.258,3.445T81.7-5.852A15.846,15.846,0,0,0,84.7-6.535Q86.072-7,87.357-7.547t2.516-1.121Q91.1-9.242,92.47-9.734Zm44.868-21.055a2.213,2.213,0,0,1,.027.574q-.027.191-.055.355a2.165,2.165,0,0,0-.027.355,2.319,2.319,0,0,0,.109.574,6.27,6.27,0,0,1-2.652,2.543,13.253,13.253,0,0,1-3.254.984q-1.75.3-3.582.629a10.624,10.624,0,0,0-3.637,1.422,1.575,1.575,0,0,0-1.285,0,3.242,3.242,0,0,1-1.668.164,1.826,1.826,0,0,1-.82.465q-.492.137-.984.3a2.178,2.178,0,0,1,.191,1.012,1.693,1.693,0,0,0,.137.848,23.787,23.787,0,0,0,4.238-.055q2.324-.219,4.566-.273.055.273-.055.355t-.055.3a5.168,5.168,0,0,1,.766.684q.383.41.766.793a4.138,4.138,0,0,0,.793.629,1.518,1.518,0,0,0,.957.191,3.264,3.264,0,0,1,.3.957,2,2,0,0,1-.137,1.066q-.875.6-1.75,1.23a14.487,14.487,0,0,1-1.832,1.121,10.854,10.854,0,0,1-2.023.793,7.581,7.581,0,0,1-2.379.246h-.41a.662.662,0,0,1-.355-.164,1.835,1.835,0,0,1-1.23.164,1.835,1.835,0,0,0-1.23.164,3.228,3.228,0,0,0-1.449-.246,4.305,4.305,0,0,1-1.5-.191,18.925,18.925,0,0,0-1.586,2.461,21.592,21.592,0,0,0-1.258,2.789,16.808,16.808,0,0,0,3.09.219q1.23-.055,2.324-.191t2.242-.273a19.99,19.99,0,0,1,2.9-.082,7.249,7.249,0,0,1,2.6-.793,13.639,13.639,0,0,0,2.762-.629,1.776,1.776,0,0,1,.766.574q.328.41.629.766a5.121,5.121,0,0,0,.629.629,1.046,1.046,0,0,0,.82.219,1.15,1.15,0,0,1,.3.52q.082.3.137.574a1.191,1.191,0,0,0,.191.465.436.436,0,0,0,.465.137,8.238,8.238,0,0,1-1.887,2.762A7.319,7.319,0,0,1,130.5-1.2a17.16,17.16,0,0,1-3.035.766q-1.668.273-3.691.656a1.36,1.36,0,0,1-.82-.027,1.98,1.98,0,0,0-.766-.137q-1.258.273-3.008.492a23,23,0,0,1-3.555.164,16.191,16.191,0,0,1-3.445-.465A5.626,5.626,0,0,1,109.5-1.2a1.788,1.788,0,0,1-.574-.9,1.215,1.215,0,0,0-.738-.793,14.879,14.879,0,0,0-.219-1.586q-.164-.875-.328-1.832T107.4-8.2a5.7,5.7,0,0,1,.082-1.7,3.43,3.43,0,0,1,.684-1.477,1.643,1.643,0,0,0,.355-1.422.379.379,0,0,0,.328-.3q.055-.246.438-.191.328-.984.711-1.859t.793-1.7q.41-.82.82-1.668T112.4-20.4a4.511,4.511,0,0,1-1.121-1.559,8.611,8.611,0,0,1-.52-1.7q-.164-.848-.273-1.75a11.316,11.316,0,0,0-.383-1.832,4.69,4.69,0,0,1,1.34-1.34,7.969,7.969,0,0,1,1.723-.848,14.808,14.808,0,0,1,2.023-.547q1.094-.219,2.3-.492,2.188-.711,3.91-1.094t3.391-.629q1.668-.246,3.473-.465t4.1-.656a1.381,1.381,0,0,0,.93.492q.219-.492.52-.3t.246-.3a5.2,5.2,0,0,0,1.395,1.559A9.035,9.035,0,0,0,137.338-30.789ZM150.6-9.953a.987.987,0,0,0-.711.574q-.219.465-.41.957t-.383.9a.614.614,0,0,1-.574.41,1.578,1.578,0,0,1-.3.766q-.246.328-.465.684a2.857,2.857,0,0,0-.328.766,1.522,1.522,0,0,0,.109.957,1.432,1.432,0,0,0-.547.93q-.109.6-.246,1.148a2.237,2.237,0,0,1-.465.93,1.411,1.411,0,0,1-1.2.328q-.164.219-.055.273t.164.383a1.27,1.27,0,0,0-.9.082,1.767,1.767,0,0,1-.738.246,3.608,3.608,0,0,1-1.723-1.148,9.945,9.945,0,0,1-1.2-1.832q-.52-1.012-.93-2.051t-.793-1.8a2.581,2.581,0,0,0,.055-1.176,2.4,2.4,0,0,0-.383-.957q2.68-5.688,5.852-12.141t6.016-12.742q1.258.492,2.488,1.121a12.783,12.783,0,0,1,2.242,1.449,8.458,8.458,0,0,1,1.723,1.887,6.02,6.02,0,0,1,.93,2.379q-.109.328-.246.246t-.246.082a1.342,1.342,0,0,1,.246.383.444.444,0,0,1,0,.219,1.3,1.3,0,0,0-.027.3,1.268,1.268,0,0,0,.164.52q-.219-.055-.3.055t-.355,0a1.847,1.847,0,0,1,.137.984,2.525,2.525,0,0,1-.246.684,3.542,3.542,0,0,0-.273.656,1.576,1.576,0,0,0,.055.9.334.334,0,0,0-.246.082,1.086,1.086,0,0,0-.137.164,1.086,1.086,0,0,1-.137.164.226.226,0,0,1-.246.027,13.3,13.3,0,0,1,.109,2.406q-.055,1.2-.082,2.434t.027,2.57a15,15,0,0,0,.383,2.762,9.237,9.237,0,0,0,3.145-2.953,17.264,17.264,0,0,0,1.914-4.047,29.059,29.059,0,0,0,1.121-4.812q.383-2.57.82-5.25a3.4,3.4,0,0,0,.766-1.2q.273-.711.492-1.5l.438-1.586a7.978,7.978,0,0,1,.547-1.449,3.052,3.052,0,0,1,1.395.52,10.1,10.1,0,0,1,1.066.875,11.984,11.984,0,0,0,1.039.875,2.867,2.867,0,0,0,1.367.52q.656.93,1.2,1.8a5.045,5.045,0,0,1,.711,1.859,3.4,3.4,0,0,0-.41.984q-.137.547-.3,1.094a4.585,4.585,0,0,1-.437,1.012,2.438,2.438,0,0,1-.766.793q-.164,1.422-.41,2.6t-.492,2.324q-.246,1.148-.41,2.379a16.059,16.059,0,0,0-.109,2.707q-.438,1.258-.93,2.68t-.766,2.57a5.109,5.109,0,0,0-1.367,1.7q-.492.984-1.039,1.969-.219.219-.273.109t-.383-.164a.493.493,0,0,1,0,.328.73.73,0,0,1-.137.191.442.442,0,0,0-.109.246.863.863,0,0,0,.082.438,4.333,4.333,0,0,0-1.367.93,10.452,10.452,0,0,1-1.285,1.094,3.889,3.889,0,0,1-1.641.656,5.137,5.137,0,0,1-2.488-.383,21.048,21.048,0,0,1-3.965-3.773A17.931,17.931,0,0,1,150.6-9.953Z" transform="translate(0 62)" fill="#0d3691"/>
        <text id="_" data-name=" " transform="translate(175.946 61.731)" fill="#fb3099" font-size="53" font-family="VodkaSans-Regular, Vodka Sans"><tspan x="0" y="0"> </tspan></text>
        <path id="Pfad_20" data-name="Pfad 20" d="M16.91-8.937a4.028,4.028,0,0,1-.33,1.346,7.229,7.229,0,0,1-.686,1.219,11.181,11.181,0,0,1-.889,1.117,12.278,12.278,0,0,1-.939.939,1.8,1.8,0,0,1,.025.99,2.4,2.4,0,0,0-.076.99A4.485,4.485,0,0,1,11.705.381,2.8,2.8,0,0,1,8.785.1,3.484,3.484,0,0,1,7.846-.939,1.608,1.608,0,0,0,6.8-1.727a3.356,3.356,0,0,0-.152-1.727q-.3-.863-.66-.914a22.7,22.7,0,0,0-.457-2.285q-.3-1.219-.559-2.463t-.432-2.437a11.238,11.238,0,0,1-.127-2.209,1.513,1.513,0,0,0-.178-.914,3.082,3.082,0,0,1-.33-.965A10.683,10.683,0,0,1,3.783-18.1q.076-1.295.076-2.463,0-1.117-.127-2.412T3.5-25.467q-.1-1.193-.1-2.184A3.828,3.828,0,0,1,3.656-29.2a2.652,2.652,0,0,1,.838-.99,7.85,7.85,0,0,0,.99-.838,2.478,2.478,0,0,1,1.777.914A1.819,1.819,0,0,1,7.77-28.59a5.109,5.109,0,0,1,1.7,1.7,9.745,9.745,0,0,1,1.016,2.336,15.425,15.425,0,0,1,.533,2.742q.152,1.447.254,2.844t.2,2.666a9.305,9.305,0,0,0,.406,2.184q1.879-2.691,3.148-4.8t2.59-4.037q1.32-1.93,2.945-3.91a53.046,53.046,0,0,1,4.215-4.469,2.642,2.642,0,0,1,.838.2q.33.152.584.254a3.8,3.8,0,0,0,.609.178,2.7,2.7,0,0,0,.965-.025q.2.508.3.736t.178.457q.076.229.2.584t.432,1.016a.422.422,0,0,1,.1.406q-.051.254-.076.482t-.025.33q0,.1.254,0a3.809,3.809,0,0,1-.533,1.295,2.234,2.234,0,0,0-.33,1.4q-1.168,1.523-2.564,3.148T22.928-17.52q-1.4,1.727-2.666,3.631A26.059,26.059,0,0,0,18.078-9.9a.467.467,0,0,0-.381.152,2.285,2.285,0,0,0-.229.33,2.285,2.285,0,0,1-.229.33A.409.409,0,0,1,16.91-8.937Z" transform="translate(188.441 58)" fill="#fdce00"/>
        <path id="Pfad_19" data-name="Pfad 19" d="M29.426-29.689a2.134,2.134,0,0,1,.026.554q-.026.185-.053.343a2.088,2.088,0,0,0-.026.343,2.236,2.236,0,0,0,.105.554,6.046,6.046,0,0,1-2.558,2.452,12.78,12.78,0,0,1-3.138.949q-1.687.29-3.454.606a10.244,10.244,0,0,0-3.507,1.371,1.518,1.518,0,0,0-1.239,0,3.126,3.126,0,0,1-1.608.158,1.761,1.761,0,0,1-.791.448q-.475.132-.949.29a2.1,2.1,0,0,1,.185.976,1.633,1.633,0,0,0,.132.817,22.938,22.938,0,0,0,4.087-.053q2.241-.211,4.4-.264.053.264-.053.343t-.053.29a4.983,4.983,0,0,1,.738.659q.369.4.738.765a3.99,3.99,0,0,0,.765.606,1.464,1.464,0,0,0,.923.185,3.148,3.148,0,0,1,.29.923,1.924,1.924,0,0,1-.132,1.028q-.844.58-1.687,1.187A13.97,13.97,0,0,1,20.8-13.078a10.466,10.466,0,0,1-1.951.765,7.31,7.31,0,0,1-2.294.237h-.4a.638.638,0,0,1-.343-.158,1.769,1.769,0,0,1-1.187.158,1.769,1.769,0,0,0-1.187.158,3.113,3.113,0,0,0-1.4-.237,4.152,4.152,0,0,1-1.45-.185A18.249,18.249,0,0,0,9.07-9.967,20.821,20.821,0,0,0,7.857-7.277a16.208,16.208,0,0,0,2.979.211q1.187-.053,2.241-.185t2.162-.264a19.277,19.277,0,0,1,2.795-.079,6.991,6.991,0,0,1,2.5-.765A13.152,13.152,0,0,0,23.2-8.965a1.712,1.712,0,0,1,.738.554q.316.4.606.738a4.938,4.938,0,0,0,.606.606,1.009,1.009,0,0,0,.791.211,1.109,1.109,0,0,1,.29.5q.079.29.132.554a1.149,1.149,0,0,0,.185.448A.421.421,0,0,0,27-5.221a7.944,7.944,0,0,1-1.819,2.663,7.058,7.058,0,0,1-2.347,1.4,16.548,16.548,0,0,1-2.927.738q-1.608.264-3.56.633a1.311,1.311,0,0,1-.791-.026,1.909,1.909,0,0,0-.738-.132q-1.213.264-2.9.475A22.18,22.18,0,0,1,8.49.686,15.613,15.613,0,0,1,5.168.237a5.425,5.425,0,0,1-2.584-1.4,1.725,1.725,0,0,1-.554-.87,1.172,1.172,0,0,0-.712-.765,14.347,14.347,0,0,0-.211-1.529Q.949-5.168.791-6.091T.554-7.91A5.494,5.494,0,0,1,.633-9.545a3.308,3.308,0,0,1,.659-1.424,1.584,1.584,0,0,0,.343-1.371.365.365,0,0,0,.316-.29q.053-.237.422-.185.316-.949.686-1.793t.765-1.635q.4-.791.791-1.608t.765-1.819a4.35,4.35,0,0,1-1.081-1.5,8.3,8.3,0,0,1-.5-1.635q-.158-.817-.264-1.687a10.912,10.912,0,0,0-.369-1.767,4.523,4.523,0,0,1,1.292-1.292,7.684,7.684,0,0,1,1.661-.817A14.279,14.279,0,0,1,8.068-28.9q1.055-.211,2.215-.475,2.109-.686,3.771-1.055t3.27-.606q1.608-.237,3.349-.448t3.955-.633a1.331,1.331,0,0,0,.9.475q.211-.475.5-.29t.237-.29a5.016,5.016,0,0,0,1.345,1.5A8.712,8.712,0,0,0,29.426-29.689Z" transform="translate(219.254 60)" fill="#f7e909"/>
        <path id="Pfad_21" data-name="Pfad 21" d="M8.49-5.484a28.913,28.913,0,0,1-1.028,3.19A9.95,9.95,0,0,1,6.117-.053a1.09,1.09,0,0,0-.949.158,3.794,3.794,0,0,1-.58.475A1.1,1.1,0,0,1,3.9.58,1.9,1.9,0,0,1,3.533.343a2.568,2.568,0,0,0-.4-.264,1.507,1.507,0,0,0-.712-.132Q2.32-.475,2.188-.844t-.712-.264a1.723,1.723,0,0,0,.053-.712A3.849,3.849,0,0,0,1.4-2.347a4.778,4.778,0,0,1-.132-.475,1.268,1.268,0,0,1,.053-.606Q1.055-3.428.9-3.8a7.227,7.227,0,0,0-.369-.738q.158-.949.316-1.793a13,13,0,0,1,.4-1.582q.237-.738.4-1.477a2.588,2.588,0,0,0-.158-1.529q.211.158.316-.079a2.36,2.36,0,0,0,.158-.633A5.979,5.979,0,0,0,2-12.419a3.442,3.442,0,0,0-.053-.659,21.851,21.851,0,0,0,.87-2.821q.343-1.45.633-2.874t.606-2.795A13.366,13.366,0,0,1,4.9-24.1a2.6,2.6,0,0,1,1.292.132,1.338,1.338,0,0,1,.87.606,11.612,11.612,0,0,0,2.426-2.558q1.055-1.5,2.162-2.927a15.947,15.947,0,0,1,2.452-2.531,6.211,6.211,0,0,1,3.4-1.318q1.055.791,2.347,1.608a6.88,6.88,0,0,1,2.136,2.136,3.822,3.822,0,0,1,.712.448,6.949,6.949,0,0,0,.712.5v.633a4.8,4.8,0,0,1,1.028,1.345,13.877,13.877,0,0,1,.712,1.635l.633,1.74a12.872,12.872,0,0,0,.738,1.661,1.25,1.25,0,0,0-.105.448,1.13,1.13,0,0,0,.079.4,3.884,3.884,0,0,1,.132.422,1.579,1.579,0,0,1,0,.58,5.838,5.838,0,0,1-1.5,3.744,11.056,11.056,0,0,1-3.243,2.347A25.928,25.928,0,0,1,17.824-11.5a35.7,35.7,0,0,0-3.9,1.371q0,.211.185.211t.132.264q1.266.791,2,1.266a13.046,13.046,0,0,0,1.4.791,10.432,10.432,0,0,0,1.424.554q.765.237,2.136.554t2.136.5q.765.185,1.4.316t1.292.211q.659.079,1.872.185a4.57,4.57,0,0,1,.817,1.134,4.34,4.34,0,0,1,.448,1.318,5.164,5.164,0,0,1,.053,1.266,1.681,1.681,0,0,1-.369.976.191.191,0,0,0,.237.132,1.026,1.026,0,0,1,.4.026,1.883,1.883,0,0,0-.527.527l-.422.633a2.916,2.916,0,0,1-.475.554,1.287,1.287,0,0,1-.738.29,7.121,7.121,0,0,1-4.113.079,45.5,45.5,0,0,1-6.275-2.03q-1.9-.738-3.085-1.292a18.14,18.14,0,0,1-2.057-1.107A12.374,12.374,0,0,1,10.2-3.955Q9.492-4.588,8.49-5.484Zm7.541-18.088a9.906,9.906,0,0,1-1.292,1.529q-.712.686-1.371,1.4a9.781,9.781,0,0,0-1.187,1.582,5.927,5.927,0,0,0-.738,2.03,14.61,14.61,0,0,0,3.85-1.028q2-.817,3.8-1.556a4.657,4.657,0,0,0-1.134-2.637A4.515,4.515,0,0,0,16.031-23.572Z" transform="translate(251.594 60)" fill="#a2c513"/>
        <path id="Pfad_22" data-name="Pfad 22" d="M29.963-4.758A9.078,9.078,0,0,1,28.972-2.8a8.521,8.521,0,0,1-1.529,1.756A8.5,8.5,0,0,1,25.488.227a5.9,5.9,0,0,1-2.266.566,2.78,2.78,0,0,1-.991-.368,5.4,5.4,0,0,0-.538-.368q-.17-.113-.312-.2t-.255-.142l-.68-.283.227-.736a.872.872,0,0,0-.057-.708,4.313,4.313,0,0,0-.68-.708l-.34-.34a2.25,2.25,0,0,1-.283-.34l-.963-1.076,1.529-.4a3.6,3.6,0,0,0,1.9-1.02,3.1,3.1,0,0,0,.368-2.1,4.678,4.678,0,0,0-1.9-.057q-.765.17-1.558.4-1.02.283-2.067.481a12.361,12.361,0,0,1-2.294.2q-.453,0-.85-.028t-.85-.085l-.566-.113a1.511,1.511,0,0,0-.227-.708,2.127,2.127,0,0,1-.227-.2,4.7,4.7,0,0,1-.595-.765,1.535,1.535,0,0,1-.142-1.218,2.711,2.711,0,0,1-.34-1.02,6.347,6.347,0,0,0-.51,1.416L9.8-9.119l-.566.113a.382.382,0,0,0-.17.255,1.215,1.215,0,0,0-.057.312l-.283.963a2.127,2.127,0,0,1-.227.2,2.127,2.127,0,0,0-.227.2,10.264,10.264,0,0,1-.283,1.02q-.17.51-.34.963-.283.736-.481,1.444a3.911,3.911,0,0,0-.142,1.388L6.8-1.643a2.366,2.366,0,0,1-.623.538q-.34.2-.68.368a.984.984,0,0,1-.312.2q-.2.085-.312.142L4.7.227,4.021.34Q3.4.453,3.144.51a2.765,2.765,0,0,1-.595.057L1.982.51Q1.359,0,1.02-.312A5.425,5.425,0,0,0,.227-.906,2.831,2.831,0,0,1-.34-1.926q-.057-.34-.113-.623a3.07,3.07,0,0,1-.142-.566.566.566,0,0,0-.142-.34l-.736-.68.623-.51.057-.963Q.34-8.5,1.614-11.158T4.248-16.6q.453-.906.878-1.812T6-20.221a1.255,1.255,0,0,1-.057-.4,1.391,1.391,0,0,1,.113-.51q.623-.963,1.02-1.728t.793-1.558q.453-.963.935-1.869a13.624,13.624,0,0,1,1.218-1.869l.906-.4q.17-.057.4-.142a1.443,1.443,0,0,1,.51-.085l.85.113a8.479,8.479,0,0,0,2.775-2.067,28.738,28.738,0,0,0,2.436-3.2l.566-.793.736.453a3.291,3.291,0,0,0,.793.312q.51.142,1.076.312,1.02.227,1.926.51a3.527,3.527,0,0,1,1.473.85,6.705,6.705,0,0,1,.4,1.359,7.642,7.642,0,0,0,.17.906q.17.963.312,1.926t.2,2.152q.283.963.481,1.9t.368,1.9q.283,1.359.566,2.634a15.56,15.56,0,0,0,.736,2.407,1.657,1.657,0,0,1,.566.057,3.081,3.081,0,0,1,.595-.17q.312-.057.708-.113l.623-.057.227.566q.057.283.566.566a2.082,2.082,0,0,1,1.076.312,5.8,5.8,0,0,1,.623.538,1.775,1.775,0,0,0,.453.34l.85.34-.453.85a7.589,7.589,0,0,1-1.614,1.954,9.977,9.977,0,0,1-2.351,1.558q.057.34.085.651a2.891,2.891,0,0,0,.142.651q.17.963.283,1.982a9.719,9.719,0,0,1,0,2.1Zm-16.369-9.8q1.7-.113,3.087-.255t3.087-.481q-.4-1.7-.85-3.54t-.963-3.653l-.34.566a24.166,24.166,0,0,0-2.181,2.662,31.938,31.938,0,0,0-1.784,2.775l-.68,1.02q-.34.51-.623,1.02A3.964,3.964,0,0,1,13-14.5,3.027,3.027,0,0,0,13.594-14.557Zm21.467-30.02.057.623q-.4.68-.651,1.133a3.5,3.5,0,0,0-.368.963,3.621,3.621,0,0,1-.963.765q-.34.142-.623.255a2.428,2.428,0,0,0-.85.453l-.566.85-.566-.51-.85.793q-.623-.51-.906-.765a4.775,4.775,0,0,0-.538-.425,5.28,5.28,0,0,0-.68-.368q-.425-.2-1.331-.595l-.793-.283.227-.736a2.817,2.817,0,0,0,.085-1.02,8.564,8.564,0,0,1,.028-1.246,12.744,12.744,0,0,0,0-1.7,2.521,2.521,0,0,1,.283-1.416,13.743,13.743,0,0,1,1.869-.85q.566.057,1.076.113l1.02.113q.4.057.51.085a.852.852,0,0,0,.142.028.852.852,0,0,0,.142-.028q.113-.028.453-.142l.68.113a1.681,1.681,0,0,1,.651.481q.255.312.538.595a1.226,1.226,0,0,0,.453.566l.68.057.227.68a7.271,7.271,0,0,1,.368.821ZM18.125-46.785q.623.68,1.246,1.246a2.166,2.166,0,0,1,.736,1.246,10.186,10.186,0,0,1-.368,1.246q-.142.34-.312.736-.736.623-1.7,1.3a3.269,3.269,0,0,1-.453.34.656.656,0,0,0-.142.085.307.307,0,0,0-.057.113q-.028.085-.2.425l-.566.4a2.01,2.01,0,0,1-.85.142q-.4-.028-.793-.085a3.971,3.971,0,0,1-.425-.028q-.255-.028-.368-.028l-.453.453-.68-.283q-.623-.283-.878-.368a1.787,1.787,0,0,1-.538-.312l-.51-.34q-.227-.85-.368-1.331a5.652,5.652,0,0,0-.368-.935,4.868,4.868,0,0,1,.113-1.3q.113-.34.227-.623a1.577,1.577,0,0,0,.283-.906l-.227-1.02.85-.057v-1.189q.793-.057,1.189-.057A3.031,3.031,0,0,0,13.254-48a6.025,6.025,0,0,0,.765-.255q.425-.17,1.388-.566l.793-.34.34.736a3.487,3.487,0,0,0,.651.736Q17.729-47.182,18.125-46.785Z" transform="translate(284.183 64)" fill="#68992f"/>
        <path id="Pfad_23" data-name="Pfad 23" d="M10.21-9.064a.9.9,0,0,0-.647.523q-.2.423-.374.872t-.349.822a.559.559,0,0,1-.523.374,1.437,1.437,0,0,1-.274.7q-.224.3-.423.623a2.6,2.6,0,0,0-.3.7,1.386,1.386,0,0,0,.1.872,1.3,1.3,0,0,0-.5.847q-.1.548-.224,1.046a2.038,2.038,0,0,1-.423.847,1.285,1.285,0,0,1-1.1.3q-.149.2-.05.249T5.279.05a1.157,1.157,0,0,0-.822.075,1.61,1.61,0,0,1-.672.224A3.286,3.286,0,0,1,2.216-.7a9.057,9.057,0,0,1-1.1-1.668Q.647-3.287.274-4.233T-.448-5.877A2.351,2.351,0,0,0-.4-6.948a2.184,2.184,0,0,0-.349-.872Q1.693-13,4.582-18.876t5.479-11.6q1.146.448,2.266,1.021a11.642,11.642,0,0,1,2.042,1.32,7.7,7.7,0,0,1,1.569,1.718,5.483,5.483,0,0,1,.847,2.167q-.1.3-.224.224t-.224.075a1.222,1.222,0,0,1,.224.349.4.4,0,0,1,0,.2,1.182,1.182,0,0,0-.025.274,1.154,1.154,0,0,0,.149.473q-.2-.05-.274.05t-.324,0a1.682,1.682,0,0,1,.125.9,2.3,2.3,0,0,1-.224.623,3.225,3.225,0,0,0-.249.6,1.436,1.436,0,0,0,.05.822.3.3,0,0,0-.224.075.989.989,0,0,0-.125.149.989.989,0,0,1-.125.149.206.206,0,0,1-.224.025,12.115,12.115,0,0,1,.1,2.191q-.05,1.1-.075,2.216t.025,2.341a13.66,13.66,0,0,0,.349,2.515A8.412,8.412,0,0,0,18.353-12.7,15.723,15.723,0,0,0,20.1-16.386a26.464,26.464,0,0,0,1.021-4.383q.349-2.341.747-4.781a3.1,3.1,0,0,0,.7-1.1q.249-.647.448-1.37l.4-1.444a7.266,7.266,0,0,1,.5-1.32,2.779,2.779,0,0,1,1.27.473,9.2,9.2,0,0,1,.971.8,10.913,10.913,0,0,0,.946.8,2.611,2.611,0,0,0,1.245.473q.6.847,1.1,1.644a4.594,4.594,0,0,1,.647,1.693,3.1,3.1,0,0,0-.374.9q-.125.5-.274,1a4.176,4.176,0,0,1-.4.921,2.22,2.22,0,0,1-.7.722q-.149,1.295-.374,2.366t-.448,2.117q-.224,1.046-.374,2.167a14.625,14.625,0,0,0-.1,2.465q-.4,1.146-.847,2.44t-.7,2.341a4.652,4.652,0,0,0-1.245,1.544q-.448.9-.946,1.793-.2.2-.249.1t-.349-.149a.449.449,0,0,1,0,.3.665.665,0,0,1-.125.174.4.4,0,0,0-.1.224.786.786,0,0,0,.075.4,3.946,3.946,0,0,0-1.245.847,9.519,9.519,0,0,1-1.17,1,3.542,3.542,0,0,1-1.494.6A4.678,4.678,0,0,1,16.386-1a19.169,19.169,0,0,1-3.611-3.437A16.33,16.33,0,0,1,10.21-9.064Z" transform="translate(322.814 57)" fill="#14939a"/>
        <path id="Pfad_24" data-name="Pfad 24" d="M26.479-14.5q-.054.269-.107.457t-.107.349a1.29,1.29,0,0,0-.054.4v.618A16.183,16.183,0,0,1,22.156-7.9a31.479,31.479,0,0,1-5.371,3.411,64.687,64.687,0,0,1-6.1,2.686Q7.52-.591,4.512.806A3.773,3.773,0,0,1,2.551-.269,5.158,5.158,0,0,1,1.531-2.014a9.95,9.95,0,0,1-.483-2.2Q.913-5.425.806-6.714a3,3,0,0,1,.457-.994,1.93,1.93,0,0,0,.3-1.155q.43-1.4.859-2.739a11.971,11.971,0,0,0,.537-2.739.967.967,0,0,1,.591-.591,26.915,26.915,0,0,0,.027-5.237,27.849,27.849,0,0,0-.886-4.968,3.95,3.95,0,0,1,.134-.779q.081-.242-.027-.349-.054-.43.3-.43h.725a4.653,4.653,0,0,0-.3-1.611q-.3-.806-.564-1.826a5.536,5.536,0,0,0,.483-1.584,3.376,3.376,0,0,1,.483-1.37,40.814,40.814,0,0,1,5.559,2.2A24.631,24.631,0,0,0,14.717-29q1.934,1.4,3.975,2.766A25.623,25.623,0,0,1,22.4-23.23,15.534,15.534,0,0,1,25.19-19.5,11.81,11.81,0,0,1,26.479-14.5ZM13.75-11.548q1.128-.43,2.229-.913a13.833,13.833,0,0,0,2.041-1.1,9.261,9.261,0,0,0,1.692-1.423,6.629,6.629,0,0,0,1.235-1.934,4.134,4.134,0,0,0-.859-1.155q-.537-.51-1.074-.967t-1.047-.94a3.8,3.8,0,0,1-.833-1.182,3.715,3.715,0,0,1-1.235-.4q-.537-.3-1.047-.591t-1.074-.564a3.645,3.645,0,0,0-1.316-.322,12.553,12.553,0,0,0-2.122-.859,3.638,3.638,0,0,1-1.423-.7.965.965,0,0,0-.591.161,36.085,36.085,0,0,1,.806,3.84,27.091,27.091,0,0,1,.3,3.6,28.625,28.625,0,0,1-.188,3.679q-.215,1.88-.591,4.082a3.514,3.514,0,0,0,.994-.242q.457-.188.913-.4t.967-.4a4.509,4.509,0,0,1,1.208-.242,1.467,1.467,0,0,1,.457-.537A4.742,4.742,0,0,0,13.75-11.548Z" transform="translate(357.094 61)" fill="#06a8d5"/>
        <path id="Pfad_25" data-name="Pfad 25" d="M29.426-29.689a2.134,2.134,0,0,1,.026.554q-.026.185-.053.343a2.088,2.088,0,0,0-.026.343,2.236,2.236,0,0,0,.105.554,6.046,6.046,0,0,1-2.558,2.452,12.78,12.78,0,0,1-3.138.949q-1.687.29-3.454.606a10.244,10.244,0,0,0-3.507,1.371,1.518,1.518,0,0,0-1.239,0,3.126,3.126,0,0,1-1.608.158,1.761,1.761,0,0,1-.791.448q-.475.132-.949.29a2.1,2.1,0,0,1,.185.976,1.633,1.633,0,0,0,.132.817,22.938,22.938,0,0,0,4.087-.053q2.241-.211,4.4-.264.053.264-.053.343t-.053.29a4.983,4.983,0,0,1,.738.659q.369.4.738.765a3.99,3.99,0,0,0,.765.606,1.464,1.464,0,0,0,.923.185,3.148,3.148,0,0,1,.29.923,1.924,1.924,0,0,1-.132,1.028q-.844.58-1.687,1.187A13.97,13.97,0,0,1,20.8-13.078a10.466,10.466,0,0,1-1.951.765,7.31,7.31,0,0,1-2.294.237h-.4a.638.638,0,0,1-.343-.158,1.769,1.769,0,0,1-1.187.158,1.769,1.769,0,0,0-1.187.158,3.113,3.113,0,0,0-1.4-.237,4.152,4.152,0,0,1-1.45-.185A18.249,18.249,0,0,0,9.07-9.967,20.821,20.821,0,0,0,7.857-7.277a16.208,16.208,0,0,0,2.979.211q1.187-.053,2.241-.185t2.162-.264a19.277,19.277,0,0,1,2.795-.079,6.991,6.991,0,0,1,2.5-.765A13.152,13.152,0,0,0,23.2-8.965a1.712,1.712,0,0,1,.738.554q.316.4.606.738a4.938,4.938,0,0,0,.606.606,1.009,1.009,0,0,0,.791.211,1.109,1.109,0,0,1,.29.5q.079.29.132.554a1.149,1.149,0,0,0,.185.448A.421.421,0,0,0,27-5.221a7.944,7.944,0,0,1-1.819,2.663,7.058,7.058,0,0,1-2.347,1.4,16.548,16.548,0,0,1-2.927.738q-1.608.264-3.56.633a1.311,1.311,0,0,1-.791-.026,1.909,1.909,0,0,0-.738-.132q-1.213.264-2.9.475A22.18,22.18,0,0,1,8.49.686,15.613,15.613,0,0,1,5.168.237a5.425,5.425,0,0,1-2.584-1.4,1.725,1.725,0,0,1-.554-.87,1.172,1.172,0,0,0-.712-.765,14.347,14.347,0,0,0-.211-1.529Q.949-5.168.791-6.091T.554-7.91A5.494,5.494,0,0,1,.633-9.545a3.308,3.308,0,0,1,.659-1.424,1.584,1.584,0,0,0,.343-1.371.365.365,0,0,0,.316-.29q.053-.237.422-.185.316-.949.686-1.793t.765-1.635q.4-.791.791-1.608t.765-1.819a4.35,4.35,0,0,1-1.081-1.5,8.3,8.3,0,0,1-.5-1.635q-.158-.817-.264-1.687a10.912,10.912,0,0,0-.369-1.767,4.523,4.523,0,0,1,1.292-1.292,7.684,7.684,0,0,1,1.661-.817A14.279,14.279,0,0,1,8.068-28.9q1.055-.211,2.215-.475,2.109-.686,3.771-1.055t3.27-.606q1.608-.237,3.349-.448t3.955-.633a1.331,1.331,0,0,0,.9.475q.211-.475.5-.29t.237-.29a5.016,5.016,0,0,0,1.345,1.5A8.712,8.712,0,0,0,29.426-29.689Z" transform="translate(388.02 60)" fill="#106097"/>
        <path id="Pfad_26" data-name="Pfad 26" d="M8.49-5.484a28.913,28.913,0,0,1-1.028,3.19A9.95,9.95,0,0,1,6.117-.053a1.09,1.09,0,0,0-.949.158,3.794,3.794,0,0,1-.58.475A1.1,1.1,0,0,1,3.9.58,1.9,1.9,0,0,1,3.533.343a2.568,2.568,0,0,0-.4-.264,1.507,1.507,0,0,0-.712-.132Q2.32-.475,2.188-.844t-.712-.264a1.723,1.723,0,0,0,.053-.712A3.849,3.849,0,0,0,1.4-2.347a4.778,4.778,0,0,1-.132-.475,1.268,1.268,0,0,1,.053-.606Q1.055-3.428.9-3.8a7.227,7.227,0,0,0-.369-.738q.158-.949.316-1.793a13,13,0,0,1,.4-1.582q.237-.738.4-1.477a2.588,2.588,0,0,0-.158-1.529q.211.158.316-.079a2.36,2.36,0,0,0,.158-.633A5.979,5.979,0,0,0,2-12.419a3.442,3.442,0,0,0-.053-.659,21.851,21.851,0,0,0,.87-2.821q.343-1.45.633-2.874t.606-2.795A13.366,13.366,0,0,1,4.9-24.1a2.6,2.6,0,0,1,1.292.132,1.338,1.338,0,0,1,.87.606,11.612,11.612,0,0,0,2.426-2.558q1.055-1.5,2.162-2.927a15.947,15.947,0,0,1,2.452-2.531,6.211,6.211,0,0,1,3.4-1.318q1.055.791,2.347,1.608a6.88,6.88,0,0,1,2.136,2.136,3.822,3.822,0,0,1,.712.448,6.949,6.949,0,0,0,.712.5v.633a4.8,4.8,0,0,1,1.028,1.345,13.877,13.877,0,0,1,.712,1.635l.633,1.74a12.872,12.872,0,0,0,.738,1.661,1.25,1.25,0,0,0-.105.448,1.13,1.13,0,0,0,.079.4,3.884,3.884,0,0,1,.132.422,1.579,1.579,0,0,1,0,.58,5.838,5.838,0,0,1-1.5,3.744,11.056,11.056,0,0,1-3.243,2.347A25.928,25.928,0,0,1,17.824-11.5a35.7,35.7,0,0,0-3.9,1.371q0,.211.185.211t.132.264q1.266.791,2,1.266a13.046,13.046,0,0,0,1.4.791,10.432,10.432,0,0,0,1.424.554q.765.237,2.136.554t2.136.5q.765.185,1.4.316t1.292.211q.659.079,1.872.185a4.57,4.57,0,0,1,.817,1.134,4.34,4.34,0,0,1,.448,1.318,5.164,5.164,0,0,1,.053,1.266,1.681,1.681,0,0,1-.369.976.191.191,0,0,0,.237.132,1.026,1.026,0,0,1,.4.026,1.883,1.883,0,0,0-.527.527l-.422.633a2.916,2.916,0,0,1-.475.554,1.287,1.287,0,0,1-.738.29,7.121,7.121,0,0,1-4.113.079,45.5,45.5,0,0,1-6.275-2.03q-1.9-.738-3.085-1.292a18.14,18.14,0,0,1-2.057-1.107A12.374,12.374,0,0,1,10.2-3.955Q9.492-4.588,8.49-5.484Zm7.541-18.088a9.906,9.906,0,0,1-1.292,1.529q-.712.686-1.371,1.4a9.781,9.781,0,0,0-1.187,1.582,5.927,5.927,0,0,0-.738,2.03,14.61,14.61,0,0,0,3.85-1.028q2-.817,3.8-1.556a4.657,4.657,0,0,0-1.134-2.637A4.515,4.515,0,0,0,16.031-23.572Z" transform="translate(420.36 60)" fill="#9e2c88"/>
        <path id="Pfad_27" data-name="Pfad 27" d="M10.21-9.064a.9.9,0,0,0-.647.523q-.2.423-.374.872t-.349.822a.559.559,0,0,1-.523.374,1.437,1.437,0,0,1-.274.7q-.224.3-.423.623a2.6,2.6,0,0,0-.3.7,1.386,1.386,0,0,0,.1.872,1.3,1.3,0,0,0-.5.847q-.1.548-.224,1.046a2.038,2.038,0,0,1-.423.847,1.285,1.285,0,0,1-1.1.3q-.149.2-.05.249T5.279.05a1.157,1.157,0,0,0-.822.075,1.61,1.61,0,0,1-.672.224A3.286,3.286,0,0,1,2.216-.7a9.057,9.057,0,0,1-1.1-1.668Q.647-3.287.274-4.233T-.448-5.877A2.351,2.351,0,0,0-.4-6.948a2.184,2.184,0,0,0-.349-.872Q1.693-13,4.582-18.876t5.479-11.6q1.146.448,2.266,1.021a11.642,11.642,0,0,1,2.042,1.32,7.7,7.7,0,0,1,1.569,1.718,5.483,5.483,0,0,1,.847,2.167q-.1.3-.224.224t-.224.075a1.222,1.222,0,0,1,.224.349.4.4,0,0,1,0,.2,1.182,1.182,0,0,0-.025.274,1.154,1.154,0,0,0,.149.473q-.2-.05-.274.05t-.324,0a1.682,1.682,0,0,1,.125.9,2.3,2.3,0,0,1-.224.623,3.225,3.225,0,0,0-.249.6,1.436,1.436,0,0,0,.05.822.3.3,0,0,0-.224.075.989.989,0,0,0-.125.149.989.989,0,0,1-.125.149.206.206,0,0,1-.224.025,12.115,12.115,0,0,1,.1,2.191q-.05,1.1-.075,2.216t.025,2.341a13.66,13.66,0,0,0,.349,2.515A8.412,8.412,0,0,0,18.353-12.7,15.723,15.723,0,0,0,20.1-16.386a26.464,26.464,0,0,0,1.021-4.383q.349-2.341.747-4.781a3.1,3.1,0,0,0,.7-1.1q.249-.647.448-1.37l.4-1.444a7.266,7.266,0,0,1,.5-1.32,2.779,2.779,0,0,1,1.27.473,9.2,9.2,0,0,1,.971.8,10.913,10.913,0,0,0,.946.8,2.611,2.611,0,0,0,1.245.473q.6.847,1.1,1.644a4.594,4.594,0,0,1,.647,1.693,3.1,3.1,0,0,0-.374.9q-.125.5-.274,1a4.176,4.176,0,0,1-.4.921,2.22,2.22,0,0,1-.7.722q-.149,1.295-.374,2.366t-.448,2.117q-.224,1.046-.374,2.167a14.625,14.625,0,0,0-.1,2.465q-.4,1.146-.847,2.44t-.7,2.341a4.652,4.652,0,0,0-1.245,1.544q-.448.9-.946,1.793-.2.2-.249.1t-.349-.149a.449.449,0,0,1,0,.3.665.665,0,0,1-.125.174.4.4,0,0,0-.1.224.786.786,0,0,0,.075.4,3.946,3.946,0,0,0-1.245.847,9.519,9.519,0,0,1-1.17,1,3.542,3.542,0,0,1-1.494.6A4.678,4.678,0,0,1,16.386-1a19.169,19.169,0,0,1-3.611-3.437A16.33,16.33,0,0,1,10.21-9.064Z" transform="translate(455.339 57)" fill="#fb3099"/>
      </g>
      <text id="_2" data-name=" " transform="translate(486.315 60.292)" fill="#fb3099" font-size="40" font-family="VodkaSans-Regular, Vodka Sans"><tspan x="0" y="0"> </tspan></text>
      <path id="Pfad_18" data-name="Pfad 18" d="M19.04-21.046c-3.2-.2-4.522.51-5,1.7-.68,1.734-1.428,3.672-2.108,5.2-.612.952-1.224.1-1.326,0-.85-1.8-1.768-3.468-2.482-4.862-.952-1.87-1.462-2.108-4.182-2.04-2.176.068-2.72,1.7-2.72,3.094.034,5.032,0,10.268.034,15.266C1.258,0,2.992-.068,4.59-.068c1.972,0,3.026-.714,3.026-2.72.034-3.23,0-5.338.544-5.338.408,0,1.462,2.278,1.938,3.332.272.578,2.04.816,2.448-.1,1.292-2.652,1.6-3.23,2.006-3.23.612,0,.306,2.108.374,5.338.068,2.006,1.054,2.72,3.026,2.72,1.938,0,3.672.068,3.672-2.618.034-5,0-10.234.034-15.266A2.748,2.748,0,0,0,19.04-21.046ZM33.66-17c0-2.38-.408-3.978-2.856-3.978H29.478c-2.006,0-2.856,1.19-2.856,3.06s-.034,8.3,0,14.348c0,2.618,1.326,3.638,3.536,3.57s3.4-.816,3.468-3.468C33.66-9.146,33.66-15.844,33.66-17Zm10.574-3.91c.85,0,4.386-.2,6.732,0,1.632.136,2.176,1.054,2.278,2.618.136,1.394-.17,3.162-1.8,3.06-1.9-.136-2.346-.068-2.38,2.244,0,1.258-.1,7.99-.034,9.962C49.1-.748,47.566.238,45.526.1c-1.972-.1-3.468-.544-3.6-3.264-.068-1.564,0-7.956,0-10.2,0-.782.34-2.074-2.176-1.7-1.768.1-1.768-1.53-1.768-2.856,0-1.53.714-2.924,2.38-2.924C42.7-20.91,42.568-20.91,44.234-20.91ZM65.11-10.37c0-1.836-.068-4.148,0-7.106,0-1.734.476-2.89,2.448-3.2a23.088,23.088,0,0,1,8.092,0c4.216.612,6.664,3.91,6.664,10.1,0,5.882-3.23,10.2-7.786,10.506A58.712,58.712,0,0,1,68.17,0c-2.482.068-3.128-.85-3.06-3.332.034-1.836,0-3.808,0-6.7C65.11-10.03,65.042-10.37,65.11-10.37ZM71.332-8.3c0,2.006.476,2.55,1.462,2.55,2.108,0,2.72-1.564,2.72-5.712,0-4.08-1.258-4.454-3.06-4.318-.646.034-1.054.578-1.054,1.734Zm25.84,2.618c-1.938,0-2.21.034-2.754,0-.51-.034-1.156-.238-1.19-.986,0-.884.85-1.088,1.428-1.122.34,0,.476.034.884.034,2.074.136,2.074-1.19,1.972-2.754-.068-1.428.238-2.856-2.04-2.822a5.865,5.865,0,0,1-1.564-.1.959.959,0,0,1-.68-.918c.034-.748.578-.986,1.122-1.054a12.177,12.177,0,0,1,2.006.1c1.734.136,2.38-.51,2.38-3.4,0-1.53-.238-2.278-1.768-2.278H89.352c-2.55,0-2.89,1.326-2.89,3.4V-3.536c0,1.87.884,3.434,2.788,3.434,1.122,0,5.2.1,7.072,0A2.179,2.179,0,0,0,98.736-2.38C98.906-4.9,98.532-5.678,97.172-5.678Zm22.134,1.36c-.68-.986-.442-.612-1.428-2.108-.612-.918-1.224-2.21-.476-2.958a6.962,6.962,0,0,0,2.006-6.936c-.782-3.434-2.958-4.284-5.2-4.59a39.132,39.132,0,0,0-8.228-.034c-2.21.238-2.754,1.6-2.822,3.264,0,1.224.068,12.376.068,14.722,0,1.6.612,2.346,2.04,2.584a3.985,3.985,0,0,0,.918.136h.17a6.411,6.411,0,0,0,2.176-.136c1.53-.068,1.768-1.224,1.768-2.89v-1.36c0-.68.2-1.428.442-1.428.306,0,.476.612.85,1.428a27.9,27.9,0,0,0,1.87,3.332C114.1-.306,115.6,0,116.79,0c2.448-.136,3.128-.306,3.5-.918C120.9-2.04,119.748-3.468,119.306-4.318Zm-8.092-12c.816-.068,1.734.782,1.734,2.38,0,1.9-.816,2.482-2.006,2.482-.714,0-1.122-1.054-1.122-2.482C109.888-15.4,109.99-16.388,111.214-16.32Zm20.876,1.938v-4.284c0-1.088.272-2.108,1.428-2.21h.612c4.556-.17,4.93-.1,4.726,4.386.034.544,0,1.768.714,1.87.816.1,1.258-1.6,1.53-2.108.51-.986.884-1.938,1.02-2.278.918-2.244,3.094-1.938,3.808-1.938,1.564,0,3.2,0,3.6.612.646,1.122-.442,2.55-.952,3.4-.612.918-1.156,1.972-2.584,4.08-.782,1.122-.238,2.04.544,3.23,1.156,1.8,2.312,3.74,3.876,6.358.714,1.258.884,3.2-1.156,3.2-.442,0-1.054.068-1.564.068-3.876,0-3.91-.272-6.086-4.93-.68-1.428-1.224-1.666-1.768-1.428,0,0-.68.2-.612,2.21v.374C139.4-.272,138.788,0,136.068,0h-1.156c-1.836,0-2.822-.34-2.822-3.774v-4.76S132.022-14.382,132.09-14.382Zm39.1,10.064c-.68-.986-.442-.612-1.428-2.108-.612-.918-1.224-2.21-.476-2.958a6.962,6.962,0,0,0,2.006-6.936c-.782-3.434-2.958-4.284-5.2-4.59a39.132,39.132,0,0,0-8.228-.034c-2.21.238-2.754,1.6-2.822,3.264,0,1.224.068,12.376.068,14.722,0,1.6.612,2.346,2.04,2.584a3.986,3.986,0,0,0,.918.136h.17a6.411,6.411,0,0,0,2.176-.136c1.53-.068,1.768-1.224,1.768-2.89v-1.36c0-.68.2-1.428.442-1.428.306,0,.476.612.85,1.428a27.9,27.9,0,0,0,1.87,3.332C165.988-.306,167.484,0,168.674,0c2.448-.136,3.128-.306,3.5-.918C172.788-2.04,171.632-3.468,171.19-4.318Zm-8.092-12c.816-.068,1.734.782,1.734,2.38,0,1.9-.816,2.482-2.006,2.482-.714,0-1.122-1.054-1.122-2.482C161.772-15.4,161.874-16.388,163.1-16.32Zm21.25,13.192c.748,0,1.19-.068,1.734,1.088C187.034-.2,188.224.136,189.992.1c2.176-.068,2.992-1.122,2.448-3.3-1.292-5.168-2.924-11.594-4.794-15.708-.714-1.53-1.394-2.04-3.638-2.04s-3.06.476-3.842,2.312A85.337,85.337,0,0,0,175.542-3.2c-.408,2.176.238,3.264,2.482,3.264,1.938,0,2.788-.136,3.536-2.346.238-.578.85-.85,2.244-.85Zm-.1-10.234a44.79,44.79,0,0,1,.85,5.44c-.034.68-.544.646-1.088.646-.748,0-.952-.136-.884-1.088.136-1.734.408-3.162.714-5,.068-.408.136-.476.2-.476C184.144-13.838,184.178-13.634,184.246-13.362ZM204.034-5.44c0-1.326.782-1.938,2.822-1.938,2.278,0,1.972-1.6,2.04-3.06.1-1.6-.408-2.244-1.9-2.278l-1.938-.034c-.612-.034-1.258-.272-1.258-1.428,0-.884.782-1.054,1.734-.952,2.176,0,3.6-.238,3.6-3.434-.068-1.53-.646-2.278-2.142-2.312h-7.956c-1.53.034-1.87.782-1.87,2.108.034,5.542,0,12.24,0,16.524,0,1.768.578,2.244,2.176,2.21l2.55.034a2.254,2.254,0,0,0,2.142-2.312Zm14.858-15.47c.85,0,4.386-.2,6.732,0,1.632.136,2.176,1.054,2.278,2.618.136,1.394-.17,3.162-1.8,3.06-1.9-.136-2.346-.068-2.38,2.244,0,1.258-.1,7.99-.034,9.962.068,2.278-1.462,3.264-3.5,3.128-1.972-.1-3.468-.544-3.6-3.264-.068-1.564,0-7.956,0-10.2,0-.782.34-2.074-2.176-1.7-1.768.1-1.768-1.53-1.768-2.856,0-1.53.714-2.924,2.38-2.924C217.362-20.91,217.226-20.91,218.892-20.91Zm20.876,10.54c0-1.836-.068-4.148,0-7.106,0-1.734.476-2.89,2.448-3.2a23.088,23.088,0,0,1,8.092,0c4.216.612,6.664,3.91,6.664,10.1,0,5.882-3.23,10.2-7.786,10.506A58.712,58.712,0,0,1,242.828,0c-2.482.068-3.128-.85-3.06-3.332.034-1.836,0-3.808,0-6.7C239.768-10.03,239.7-10.37,239.768-10.37ZM245.99-8.3c0,2.006.476,2.55,1.462,2.55,2.108,0,2.72-1.564,2.72-5.712,0-4.08-1.258-4.454-3.06-4.318-.646.034-1.054.578-1.054,1.734Zm25.84,2.618c-1.938,0-2.21.034-2.754,0-.51-.034-1.156-.238-1.19-.986,0-.884.85-1.088,1.428-1.122.34,0,.476.034.884.034,2.074.136,2.074-1.19,1.972-2.754-.068-1.428.238-2.856-2.04-2.822a5.865,5.865,0,0,1-1.564-.1.959.959,0,0,1-.68-.918c.034-.748.578-.986,1.122-1.054a12.177,12.177,0,0,1,2.006.1c1.734.136,2.38-.51,2.38-3.4,0-1.53-.238-2.278-1.768-2.278H264.01c-2.55,0-2.89,1.326-2.89,3.4V-3.536c0,1.87.884,3.434,2.788,3.434,1.122,0,5.2.1,7.072,0a2.179,2.179,0,0,0,2.414-2.278C273.564-4.9,273.19-5.678,271.83-5.678Zm22.134,1.36c-.68-.986-.442-.612-1.428-2.108-.612-.918-1.224-2.21-.476-2.958a6.962,6.962,0,0,0,2.006-6.936c-.782-3.434-2.958-4.284-5.2-4.59a39.132,39.132,0,0,0-8.228-.034c-2.21.238-2.754,1.6-2.822,3.264,0,1.224.068,12.376.068,14.722,0,1.6.612,2.346,2.04,2.584a3.986,3.986,0,0,0,.918.136h.17a6.411,6.411,0,0,0,2.176-.136c1.53-.068,1.768-1.224,1.768-2.89v-1.36c0-.68.2-1.428.442-1.428.306,0,.476.612.85,1.428a27.9,27.9,0,0,0,1.87,3.332C288.762-.306,290.258,0,291.448,0c2.448-.136,3.128-.306,3.5-.918C295.562-2.04,294.406-3.468,293.964-4.318Zm-8.092-12c.816-.068,1.734.782,1.734,2.38,0,1.9-.816,2.482-2.006,2.482-.714,0-1.122-1.054-1.122-2.482C284.546-15.4,284.648-16.388,285.872-16.32Zm41-4.726c-2.04-.136-3.6-.34-5,1.7-.782,1.224-1.938,3.4-3.128,5.2-.612.952-1.224.1-1.326,0-1.122-1.8-2.346-3.978-3.128-5.2-1.326-2.04-2.856-1.666-4.9-1.7-2.176-.068-2.72,1.7-2.72,3.094.034,5.032,0,10.268.034,15.266,0,2.686,1.734,2.618,3.672,2.618,1.972,0,3.026-.714,3.026-2.72.034-3.23-.238-6.12.952-5.338,1.87,2.38.816,1.122,2.55,3.332a1.675,1.675,0,0,0,2.448-.1c1.734-2.278.612-.85,2.448-3.23,1.19-.782.884,2.108.952,5.338.068,2.006,1.054,2.72,3.026,2.72,1.938,0,3.672.068,3.672-2.618.034-5,0-10.234.034-15.266A2.7,2.7,0,0,0,326.876-21.046Zm24.82,2.958c-.068-1.938-.986-2.822-3.6-2.856-2.992,0-3.842.918-3.842,2.618v7.582c0,2.958-.306,4.216-1.5,4.216s-1.462-.952-1.462-4.216v-7.582c0-1.7-.85-2.618-3.842-2.618-2.618.034-3.536.918-3.6,2.856-.068.918-.068,5.78.068,9.146.374,5.712,3.264,9.112,8.84,9.112,6.154,0,8.5-3.876,8.84-9.656C351.764-12.41,351.764-17.17,351.7-18.088Zm6.936,8.432c.918.578,2.584,1.394,2.584,2.584,0,1.564-2.618.578-3.808.578-1.428.068-2.142,1.19-2.176,2.754-.068,1.53-.85,3.468,2.142,3.672A21.05,21.05,0,0,0,363.7-.34c2.992-.51,5.134-2.142,5.576-5.542a5.972,5.972,0,0,0-3.774-6.732c-1.462-.952-2.21-1.224-2.21-2.108,0-.952,2.482-.51,3.57-.408C368.322-15.2,369-16.388,369-17.918c.068-1.5.51-3.2-2.312-3.332a19.743,19.743,0,0,0-3.74-.068c-2.346.2-5.032.612-6.6,3.332A5.793,5.793,0,0,0,358.632-9.656ZM380.7-17c0-2.38-.408-3.978-2.856-3.978h-1.326c-2.006,0-2.856,1.19-2.856,3.06s-.034,8.3,0,14.348c0,2.618,1.326,3.638,3.536,3.57s3.4-.816,3.468-3.468C380.7-9.146,380.7-15.844,380.7-17Zm4.964,2.618v-4.284c0-1.088.272-2.108,1.428-2.21.238,0,1.394-.1,2.55-.068,1.564.034,2.788.612,2.788,2.346,0,3.2,0,3.978.374,3.978.51,0,.748-.952,1.19-2.108.476-.918.714-1.938,1.36-3.2.51-1.326,2.482-1.02,3.128-1.02,1.564,0,3.094.068,3.6.612.68.748.34,1.6-.306,2.55-1.088,1.6-2.516,3.128-3.91,4.93-.782.986-.578,1.836.2,3.23.986,1.768,2.482,3.74,4.216,6.358.816,1.224.884,3.2-1.156,3.2-.442,0-2.074.068-2.584.068-2.618,0-3.162-.646-4.522-4.76-.442-1.36-.578-1.666-.748-1.666-.306,0-.476.34-.476,1.258v1.394C392.972-.272,392.36,0,389.64,0h-1.156c-1.836,0-2.822-.34-2.822-3.774v-4.76S385.594-14.382,385.662-14.382Z" transform="translate(23.988 112.125)" fill="#0d3691"/>
    </g>
  </g>
</svg>
